<svg width="94" height="82" viewBox="0 0 94 82" fill="none" xmlns="http://www.w3.org/2000/svg">
<ellipse cx="47.0002" cy="41.7661" rx="46.9524" ry="39.8503" fill="#BDBEBE"/>
<ellipse cx="47.0002" cy="36.2423" rx="46.9524" ry="35.9048" fill="#E0E0E0"/>
<path d="M16.301 47.8651C13.5717 49.4542 10.0071 48.5369 9.00432 45.5421C7.75954 41.8246 7.30201 37.8663 7.68742 33.9224C8.25939 28.0693 10.6589 22.5447 14.5459 18.1314C18.433 13.7181 23.6103 10.6401 29.3443 9.33349C33.208 8.45308 37.1924 8.40705 41.0373 9.17237C44.1347 9.78892 45.4949 13.2091 44.2632 16.1172C43.0315 19.0254 39.6436 20.2717 36.4902 20.096C34.9538 20.0104 33.4038 20.1386 31.8853 20.4846C28.4923 21.2578 25.4287 23.0792 23.1286 25.6906C20.8285 28.3021 19.4086 31.5713 19.0702 35.0347C18.9187 36.5848 18.9873 38.1386 19.2662 39.6518C19.8387 42.7578 19.0303 46.276 16.301 47.8651Z" fill="#EEEEEE"/>
<path d="M42.1343 34.7956V30.85V30.85C42.1343 27.9447 44.4898 25.5892 47.395 25.5892V25.5892C50.3003 25.5892 52.6558 27.9447 52.6558 30.85V30.85V34.7956" stroke="#9E9E9E" stroke-width="1.97279" stroke-linecap="round" stroke-linejoin="round"/>
<path fill-rule="evenodd" clip-rule="evenodd" d="M53.9708 49.2626H40.8189C39.3656 49.2626 38.1885 48.0855 38.1885 46.6322V37.4259C38.1885 35.9726 39.3656 34.7955 40.8189 34.7955H53.9708C55.4241 34.7955 56.6012 35.9726 56.6012 37.4259V46.6322C56.6012 48.0855 55.4241 49.2626 53.9708 49.2626Z" fill="#9E9E9E" stroke="#9E9E9E" stroke-width="1.97279" stroke-linecap="round" stroke-linejoin="round"/>
<path fill-rule="evenodd" clip-rule="evenodd" d="M47.4028 40.6937C47.3988 40.6937 47.3962 40.7016 47.3962 40.7135C47.3962 40.7253 47.3937 43.344 47.3963 43.344C47.4002 43.344 47.4093 40.7253 47.4093 40.7135C47.4093 40.7016 47.4067 40.6937 47.4028 40.6937Z" stroke="#E0E0E0" stroke-width="1.97279" stroke-linecap="round" stroke-linejoin="round"/>
</svg>
