<svg width="94" height="82" viewBox="0 0 94 82" fill="none" xmlns="http://www.w3.org/2000/svg">
<ellipse cx="46.9524" cy="41.4286" rx="46.9524" ry="39.8503" fill="#FF981E"/>
<ellipse cx="46.9524" cy="35.9048" rx="46.9524" ry="35.9048" fill="#FFC107"/>
<path d="M16.2531 47.5276C13.5238 49.1167 9.95927 48.1993 8.95647 45.2045C7.71169 41.4871 7.25416 37.5288 7.63957 33.5849C8.21154 27.7318 10.6111 22.2071 14.4981 17.7939C18.3851 13.3806 23.5625 10.3026 29.2965 8.99598C33.1602 8.11557 37.1445 8.06954 40.9894 8.83486C44.0869 9.45141 45.4471 12.8716 44.2154 15.7797C42.9837 18.6879 39.5957 19.9341 36.4424 19.7585C34.906 19.6729 33.356 19.8011 31.8375 20.1471C28.4445 20.9203 25.3808 22.7417 23.0807 25.3531C20.7807 27.9646 19.3608 31.2337 19.0223 34.6972C18.8708 36.2473 18.9394 37.801 19.2184 39.3143C19.7909 42.4202 18.9825 45.9385 16.2531 47.5276Z" fill="#FFDA6A"/>
<rect x="34.7212" y="27.619" width="25.2517" height="25.4278" rx="9.44819" fill="white"/>
<path d="M52.749 36.4538C52.6741 36.3783 52.585 36.3183 52.4868 36.2774C52.3887 36.2365 52.2834 36.2155 52.177 36.2155C52.0707 36.2155 51.9654 36.2365 51.8672 36.2774C51.769 36.3183 51.6799 36.3783 51.605 36.4538L45.603 42.4639L43.0813 39.9342C43.0036 39.859 42.9118 39.8 42.8112 39.7603C42.7106 39.7207 42.6032 39.7013 42.4951 39.7031C42.387 39.705 42.2803 39.7281 42.1812 39.7712C42.082 39.8143 41.9923 39.8765 41.9172 39.9543C41.8421 40.0321 41.783 40.1239 41.7434 40.2244C41.7037 40.325 41.6843 40.4324 41.6862 40.5405C41.688 40.6486 41.7112 40.7553 41.7543 40.8545C41.7974 40.9536 41.8596 41.0433 41.9373 41.1184L45.031 44.2121C45.1059 44.2876 45.195 44.3475 45.2932 44.3885C45.3913 44.4294 45.4966 44.4504 45.603 44.4504C45.7093 44.4504 45.8146 44.4294 45.9128 44.3885C46.011 44.3475 46.1001 44.2876 46.175 44.2121L52.749 37.6381C52.8308 37.5626 52.8961 37.4711 52.9407 37.3692C52.9853 37.2673 53.0084 37.1572 53.0084 37.0459C53.0084 36.9347 52.9853 36.8246 52.9407 36.7227C52.8961 36.6208 52.8308 36.5292 52.749 36.4538Z" fill="#FFC107"/>
</svg>
