<svg width="95" height="82" viewBox="0 0 95 82" fill="none" xmlns="http://www.w3.org/2000/svg">
<ellipse cx="47.5" cy="41.8081" rx="47" ry="39.8908" fill="#013DD0"/>
<ellipse cx="47.5" cy="36.2787" rx="47" ry="35.9412" fill="#2060FE"/>
<path d="M16.7697 47.9133C14.0377 49.504 10.4695 48.5857 9.46567 45.5879C8.21963 41.8667 7.76164 37.9044 8.14744 33.9565C8.71999 28.0974 11.1219 22.5672 15.0129 18.1494C18.9039 13.7317 24.0865 10.6505 29.8263 9.34262C33.6939 8.46132 37.6823 8.41524 41.5311 9.18134C44.6317 9.79851 45.9933 13.2221 44.7603 16.1332C43.5274 19.0443 40.136 20.2919 36.9794 20.116C35.4415 20.0303 33.8899 20.1587 32.3699 20.5051C28.9734 21.279 25.9067 23.1022 23.6043 25.7164C21.3019 28.3305 19.8805 31.6029 19.5417 35.0699C19.3901 36.6215 19.4587 38.1769 19.738 39.6917C20.3111 42.8008 19.5018 46.3226 16.7697 47.9133Z" fill="white" fill-opacity="0.4"/>
<path fill-rule="evenodd" clip-rule="evenodd" d="M47.8951 43.5656L40.2316 47.2058L41.8233 39.1487L36.0464 33.2401L44.1812 32.2251L47.8951 24.8249L51.609 32.2251L59.7439 33.2401L53.9669 39.1487L55.5586 47.2058L47.8951 43.5656Z" fill="white" stroke="white" stroke-width="1.97479" stroke-linecap="round" stroke-linejoin="round"/>
</svg>
